<svg width="21" height="20" viewBox="0 0 21 20" fill="none" xmlns="http://www.w3.org/2000/svg">
<path d="M20.3008 6.03516C20.3008 6.03516 20.1055 4.65625 19.5039 4.05078C18.7422 3.25391 17.8906 3.25 17.5 3.20312C14.7031 3 10.5039 3 10.5039 3H10.4961C10.4961 3 6.29688 3 3.5 3.20312C3.10938 3.25 2.25781 3.25391 1.49609 4.05078C0.894531 4.65625 0.703125 6.03516 0.703125 6.03516C0.703125 6.03516 0.5 7.65625 0.5 9.27344V10.7891C0.5 12.4062 0.699219 14.0273 0.699219 14.0273C0.699219 14.0273 0.894531 15.4063 1.49219 16.0117C2.25391 16.8086 3.25391 16.7813 3.69922 16.8672C5.30078 17.0195 10.5 17.0664 10.5 17.0664C10.5 17.0664 14.7031 17.0586 17.5 16.8594C17.8906 16.8125 18.7422 16.8086 19.5039 16.0117C20.1055 15.4063 20.3008 14.0273 20.3008 14.0273C20.3008 14.0273 20.5 12.4102 20.5 10.7891V9.27344C20.5 7.65625 20.3008 6.03516 20.3008 6.03516ZM8.43359 12.6289V7.00781L13.8359 9.82812L8.43359 12.6289Z" fill="#3F4749"/>
</svg>
